<svg width="64" height="11" viewBox="0 0 64 11" fill="none" xmlns="http://www.w3.org/2000/svg">
<path d="M3.92578 4.33398H2.29102V10H1.31836V4.33398H0.169922V3.89453L1.31836 3.54297V3.18555C1.31836 1.60742 2.00781 0.818359 3.38672 0.818359C3.72656 0.818359 4.125 0.886719 4.58203 1.02344L4.33008 1.80273C3.95508 1.68164 3.63477 1.62109 3.36914 1.62109C3.00195 1.62109 2.73047 1.74414 2.55469 1.99023C2.37891 2.23242 2.29102 2.62305 2.29102 3.16211V3.57812H3.92578V4.33398ZM6.49219 3.13867C6.49219 3.4082 6.5625 3.66602 6.70312 3.91211C6.84375 4.1543 7.08398 4.44727 7.42383 4.79102C7.92773 4.49805 8.27734 4.22852 8.47266 3.98242C8.67188 3.73242 8.77148 3.44531 8.77148 3.12109C8.77148 2.82031 8.66992 2.57617 8.4668 2.38867C8.26758 2.19727 8 2.10156 7.66406 2.10156C7.31641 2.10156 7.0332 2.19531 6.81445 2.38281C6.59961 2.57031 6.49219 2.82227 6.49219 3.13867ZM7.40039 9.24414C8.3418 9.24414 9.12305 8.94336 9.74414 8.3418L7.18359 5.85742C6.75 6.12305 6.44336 6.34375 6.26367 6.51953C6.08398 6.69141 5.95117 6.87695 5.86523 7.07617C5.7793 7.27539 5.73633 7.50195 5.73633 7.75586C5.73633 8.21289 5.88672 8.57617 6.1875 8.8457C6.49219 9.11133 6.89648 9.24414 7.40039 9.24414ZM4.72852 7.7793C4.72852 7.27148 4.86328 6.82227 5.13281 6.43164C5.40625 6.04102 5.89453 5.64648 6.59766 5.24805C6.26562 4.87695 6.03906 4.5957 5.91797 4.4043C5.80078 4.21289 5.70703 4.01367 5.63672 3.80664C5.56641 3.59961 5.53125 3.38477 5.53125 3.16211C5.53125 2.57617 5.72266 2.11914 6.10547 1.79102C6.48828 1.46289 7.02148 1.29883 7.70508 1.29883C8.33789 1.29883 8.83594 1.46289 9.19922 1.79102C9.5625 2.11523 9.74414 2.56836 9.74414 3.15039C9.74414 3.56836 9.61133 3.95508 9.3457 4.31055C9.08008 4.66211 8.64062 5.01953 8.02734 5.38281L10.4121 7.67383C10.6309 7.43164 10.8047 7.14844 10.9336 6.82422C11.0664 6.49609 11.1777 6.13867 11.2676 5.75195H12.252C11.9863 6.86914 11.5859 7.7168 11.0508 8.29492L12.8027 10H11.4609L10.377 8.95703C9.91602 9.37109 9.44727 9.66797 8.9707 9.84766C8.49414 10.0273 7.96289 10.1172 7.37695 10.1172C6.53711 10.1172 5.88477 9.91016 5.41992 9.49609C4.95898 9.08203 4.72852 8.50977 4.72852 7.7793ZM16.8516 3.47266C17.6953 3.47266 18.3496 3.76172 18.8145 4.33984C19.2832 4.91406 19.5176 5.72852 19.5176 6.7832C19.5176 7.83789 19.2812 8.6582 18.8086 9.24414C18.3398 9.82617 17.6875 10.1172 16.8516 10.1172C16.4336 10.1172 16.0508 10.041 15.7031 9.88867C15.3594 9.73242 15.0703 9.49414 14.8359 9.17383H14.7656L14.5605 10H13.8633V0.882812H14.8359V3.09766C14.8359 3.59375 14.8203 4.03906 14.7891 4.43359H14.8359C15.2891 3.79297 15.9609 3.47266 16.8516 3.47266ZM16.7109 4.28711C16.0469 4.28711 15.5684 4.47852 15.2754 4.86133C14.9824 5.24023 14.8359 5.88086 14.8359 6.7832C14.8359 7.68555 14.9863 8.33203 15.2871 8.72266C15.5879 9.10938 16.0703 9.30273 16.7344 9.30273C17.332 9.30273 17.7773 9.08594 18.0703 8.65234C18.3633 8.21484 18.5098 7.58789 18.5098 6.77148C18.5098 5.93555 18.3633 5.3125 18.0703 4.90234C17.7773 4.49219 17.3242 4.28711 16.7109 4.28711ZM27.5449 5.53516H28.1777C28.4902 5.53516 28.7402 5.45508 28.9277 5.29492C29.1191 5.13086 29.2148 4.92383 29.2148 4.67383C29.2148 4.38086 29.1309 4.17188 28.9629 4.04688C28.7949 3.91797 28.5293 3.85352 28.166 3.85352H27.5449V5.53516ZM30.0879 4.65039C30.0879 4.96289 30.0039 5.24023 29.8359 5.48242C29.6719 5.7207 29.4395 5.89844 29.1387 6.01562L30.5332 8.33008H29.5488L28.3359 6.25586H27.5449V8.33008H26.6777V3.10938H28.207C28.8555 3.10938 29.3301 3.23633 29.6309 3.49023C29.9355 3.74414 30.0879 4.13086 30.0879 4.65039ZM23.8945 5.7168C23.8945 4.93555 24.0898 4.20312 24.4805 3.51953C24.8711 2.83594 25.4082 2.29688 26.0918 1.90234C26.7754 1.50781 27.5117 1.31055 28.3008 1.31055C29.082 1.31055 29.8145 1.50586 30.498 1.89648C31.1816 2.28711 31.7207 2.82422 32.1152 3.50781C32.5098 4.19141 32.707 4.92773 32.707 5.7168C32.707 6.48633 32.5176 7.20898 32.1387 7.88477C31.7598 8.56055 31.2285 9.10156 30.5449 9.50781C29.8613 9.91406 29.1133 10.1172 28.3008 10.1172C27.4922 10.1172 26.7461 9.91602 26.0625 9.51367C25.3789 9.10742 24.8457 8.56641 24.4629 7.89062C24.084 7.21484 23.8945 6.49023 23.8945 5.7168ZM24.5098 5.7168C24.5098 6.39258 24.6797 7.02539 25.0195 7.61523C25.3594 8.20117 25.8223 8.66406 26.4082 9.00391C26.998 9.33984 27.6289 9.50781 28.3008 9.50781C28.9805 9.50781 29.6113 9.33789 30.1934 8.99805C30.7754 8.6582 31.2363 8.19922 31.5762 7.62109C31.9199 7.03906 32.0918 6.4043 32.0918 5.7168C32.0918 5.03711 31.9219 4.40625 31.582 3.82422C31.2422 3.24219 30.7812 2.78125 30.1992 2.44141C29.6211 2.09766 28.9883 1.92578 28.3008 1.92578C27.6211 1.92578 26.9902 2.0957 26.4082 2.43555C25.8262 2.77539 25.3633 3.23633 25.0195 3.81836C24.6797 4.39648 24.5098 5.0293 24.5098 5.7168ZM42.627 10H36.9961V9.16211L39.252 6.89453C39.9395 6.19922 40.3926 5.70312 40.6113 5.40625C40.8301 5.10938 40.9941 4.82031 41.1035 4.53906C41.2129 4.25781 41.2676 3.95508 41.2676 3.63086C41.2676 3.17383 41.1289 2.8125 40.8516 2.54688C40.5742 2.27734 40.1895 2.14258 39.6973 2.14258C39.3418 2.14258 39.0039 2.20117 38.6836 2.31836C38.3672 2.43555 38.0137 2.64844 37.623 2.95703L37.1074 2.29492C37.8965 1.63867 38.7559 1.31055 39.6855 1.31055C40.4902 1.31055 41.1211 1.51758 41.5781 1.93164C42.0352 2.3418 42.2637 2.89453 42.2637 3.58984C42.2637 4.13281 42.1113 4.66992 41.8066 5.20117C41.502 5.73242 40.9316 6.4043 40.0957 7.2168L38.2207 9.05078V9.09766H42.627V10ZM49.541 5.70508C49.541 7.18555 49.3066 8.29102 48.8379 9.02148C48.373 9.75195 47.6602 10.1172 46.6992 10.1172C45.7773 10.1172 45.0762 9.74414 44.5957 8.99805C44.1152 8.24805 43.875 7.15039 43.875 5.70508C43.875 4.21289 44.1074 3.10547 44.5723 2.38281C45.0371 1.66016 45.7461 1.29883 46.6992 1.29883C47.6289 1.29883 48.334 1.67578 48.8145 2.42969C49.2988 3.18359 49.541 4.27539 49.541 5.70508ZM44.8594 5.70508C44.8594 6.95117 45.0059 7.85938 45.2988 8.42969C45.5918 8.99609 46.0586 9.2793 46.6992 9.2793C47.3477 9.2793 47.8164 8.99219 48.1055 8.41797C48.3984 7.83984 48.5449 6.93555 48.5449 5.70508C48.5449 4.47461 48.3984 3.57422 48.1055 3.00391C47.8164 2.42969 47.3477 2.14258 46.6992 2.14258C46.0586 2.14258 45.5918 2.42578 45.2988 2.99219C45.0059 3.55469 44.8594 4.45898 44.8594 5.70508ZM56.3613 10H50.7305V9.16211L52.9863 6.89453C53.6738 6.19922 54.127 5.70312 54.3457 5.40625C54.5645 5.10938 54.7285 4.82031 54.8379 4.53906C54.9473 4.25781 55.002 3.95508 55.002 3.63086C55.002 3.17383 54.8633 2.8125 54.5859 2.54688C54.3086 2.27734 53.9238 2.14258 53.4316 2.14258C53.0762 2.14258 52.7383 2.20117 52.418 2.31836C52.1016 2.43555 51.748 2.64844 51.3574 2.95703L50.8418 2.29492C51.6309 1.63867 52.4902 1.31055 53.4199 1.31055C54.2246 1.31055 54.8555 1.51758 55.3125 1.93164C55.7695 2.3418 55.998 2.89453 55.998 3.58984C55.998 4.13281 55.8457 4.66992 55.541 5.20117C55.2363 5.73242 54.666 6.4043 53.8301 7.2168L51.9551 9.05078V9.09766H56.3613V10ZM63.2754 5.70508C63.2754 7.18555 63.041 8.29102 62.5723 9.02148C62.1074 9.75195 61.3945 10.1172 60.4336 10.1172C59.5117 10.1172 58.8105 9.74414 58.3301 8.99805C57.8496 8.24805 57.6094 7.15039 57.6094 5.70508C57.6094 4.21289 57.8418 3.10547 58.3066 2.38281C58.7715 1.66016 59.4805 1.29883 60.4336 1.29883C61.3633 1.29883 62.0684 1.67578 62.5488 2.42969C63.0332 3.18359 63.2754 4.27539 63.2754 5.70508ZM58.5938 5.70508C58.5938 6.95117 58.7402 7.85938 59.0332 8.42969C59.3262 8.99609 59.793 9.2793 60.4336 9.2793C61.082 9.2793 61.5508 8.99219 61.8398 8.41797C62.1328 7.83984 62.2793 6.93555 62.2793 5.70508C62.2793 4.47461 62.1328 3.57422 61.8398 3.00391C61.5508 2.42969 61.082 2.14258 60.4336 2.14258C59.793 2.14258 59.3262 2.42578 59.0332 2.99219C58.7402 3.55469 58.5938 4.45898 58.5938 5.70508Z" fill="#899D9D"/>
</svg>
